<svg viewBox="0 0 64 64" fill="none" xmlns="http://www.w3.org/2000/svg">
  <!-- Head silhouette -->
  <path d="M32 6C20.954 6 12 14.954 12 26c0 7.18 3.78 13.47 9.45 17H20v9c0 1.1.9 2 2 2h20c1.1 0 2-.9 2-2v-9h-1.45C48.22 39.47 52 33.18 52 26 52 14.954 43.046 6 32 6z" fill="#D97757" fill-opacity="0.12" stroke="#D97757" stroke-width="1.5"/>
  <!-- Pentagon: 5 outer nodes -->
  <circle cx="32" cy="16" r="2.5" fill="#D97757"/>
  <circle cx="22" cy="23" r="2.5" fill="#D97757"/>
  <circle cx="42" cy="23" r="2.5" fill="#D97757"/>
  <circle cx="25" cy="34" r="2.5" fill="#D97757"/>
  <circle cx="39" cy="34" r="2.5" fill="#D97757"/>
  <!-- Pentagon connections -->
  <line x1="32" y1="16" x2="22" y2="23" stroke="#D97757" stroke-width="1" opacity="0.5"/>
  <line x1="32" y1="16" x2="42" y2="23" stroke="#D97757" stroke-width="1" opacity="0.5"/>
  <line x1="22" y1="23" x2="25" y2="34" stroke="#D97757" stroke-width="1" opacity="0.5"/>
  <line x1="42" y1="23" x2="39" y2="34" stroke="#D97757" stroke-width="1" opacity="0.5"/>
  <line x1="25" y1="34" x2="39" y2="34" stroke="#D97757" stroke-width="1" opacity="0.5"/>
</svg>
